HIERARCHY
ROOT Junyuan_V1:Solving:Hips
{
	OFFSET 0.000000 0.000000 0.000000
	CHANNELS 6 Xposition Yposition Zposition Xrotation Yrotation Zrotation
	JOINT Junyuan_V1:Solving:Spine
	{
		OFFSET 0.000000 -12.985630 2.462989
		CHANNELS 6 Xposition Yposition Zposition Xrotation Yrotation Zrotation
		JOINT Junyuan_V1:Solving:Spine1
		{
			OFFSET 0.000000 -8.692390 1.532706
			CHANNELS 6 Xposition Yposition Zposition Xrotation Yrotation Zrotation
			JOINT Junyuan_V1:Solving:Spine2
			{
				OFFSET 0.000000 -8.792902 0.769282
				CHANNELS 6 Xposition Yposition Zposition Xrotation Yrotation Zrotation
				JOINT Junyuan_V1:Solving:Spine3
				{
					OFFSET 0.000000 -8.826483 0.000000
					CHANNELS 6 Xposition Yposition Zposition Xrotation Yrotation Zrotation
					JOINT Junyuan_V1:Solving:Neck
					{
						OFFSET 0.000000 -11.348343 -1.134832
						CHANNELS 6 Xposition Yposition Zposition Xrotation Yrotation Zrotation
						JOINT Junyuan_V1:Solving:Neck1
						{
							OFFSET 0.000000 -7.624485 -0.667056
							CHANNELS 6 Xposition Yposition Zposition Xrotation Yrotation Zrotation
							JOINT Junyuan_V1:Solving:Head
							{
								OFFSET 0.000000 -7.537346 -1.329035
								CHANNELS 6 Xposition Yposition Zposition Xrotation Yrotation Zrotation
								JOINT Junyuan_V1:Solving:HeadEnd
								{
									OFFSET 0.000000 -9.728073 0.000003
									CHANNELS 6 Xposition Yposition Zposition Xrotation Yrotation Zrotation
									End Site
									{
										OFFSET 0.000000 -9.728081 0.000002
									}
								}
							}
						}
					}
					JOINT Junyuan_V1:Solving:RightShoulder
					{
						OFFSET 0.000000 -8.105961 -5.517343
						CHANNELS 6 Xposition Yposition Zposition Xrotation Yrotation Zrotation
						JOINT Junyuan_V1:Solving:RightArm
						{
							OFFSET -18.898018 -0.000008 0.000000
							CHANNELS 6 Xposition Yposition Zposition Xrotation Yrotation Zrotation
							JOINT Junyuan_V1:Solving:RightForeArm
							{
								OFFSET -28.740982 -0.000008 0.000000
								CHANNELS 6 Xposition Yposition Zposition Xrotation Yrotation Zrotation
								JOINT Junyuan_V1:Solving:RightHand
								{
									OFFSET -20.953522 -0.000008 0.000000
									CHANNELS 6 Xposition Yposition Zposition Xrotation Yrotation Zrotation
									JOINT Junyuan_V1:Solving:RightHandThumb1
									{
										OFFSET -4.628059 2.916191 -3.441377
										CHANNELS 6 Xposition Yposition Zposition Xrotation Yrotation Zrotation
										End Site
										{
											OFFSET -6.617699 -0.000004 -6.678891
										}
									}
									JOINT Junyuan_V1:Solving:RightHandMiddle1
									{
										OFFSET -12.341492 -0.000004 0.079112
										CHANNELS 6 Xposition Yposition Zposition Xrotation Yrotation Zrotation
										End Site
										{
											OFFSET -9.402214 -0.000004 0.000000
										}
									}
								}
							}
						}
					}
					JOINT Junyuan_V1:Solving:LeftShoulder
					{
						OFFSET 0.000000 -8.105961 -5.517343
						CHANNELS 6 Xposition Yposition Zposition Xrotation Yrotation Zrotation
						JOINT Junyuan_V1:Solving:LeftArm
						{
							OFFSET 18.898018 -0.000008 0.000000
							CHANNELS 6 Xposition Yposition Zposition Xrotation Yrotation Zrotation
							JOINT Junyuan_V1:Solving:LeftForeArm
							{
								OFFSET 28.740982 -0.000008 0.000000
								CHANNELS 6 Xposition Yposition Zposition Xrotation Yrotation Zrotation
								JOINT Junyuan_V1:Solving:LeftHand
								{
									OFFSET 20.953522 -0.000008 0.000000
									CHANNELS 6 Xposition Yposition Zposition Xrotation Yrotation Zrotation
									JOINT Junyuan_V1:Solving:LeftHandThumb1
									{
										OFFSET 4.628059 2.916191 -3.441377
										CHANNELS 6 Xposition Yposition Zposition Xrotation Yrotation Zrotation
										End Site
										{
											OFFSET 6.617699 -0.000004 -6.678891
										}
									}
									JOINT Junyuan_V1:Solving:LeftHandMiddle1
									{
										OFFSET 12.341492 -0.000004 0.079112
										CHANNELS 6 Xposition Yposition Zposition Xrotation Yrotation Zrotation
										End Site
										{
											OFFSET 9.402214 -0.000004 0.000000
										}
									}
								}
							}
						}
					}
				}
			}
		}
	}
	JOINT Junyuan_V1:Solving:RightUpLeg
	{
		OFFSET -11.141669 0.000000 0.000000
		CHANNELS 6 Xposition Yposition Zposition Xrotation Yrotation Zrotation
		JOINT Junyuan_V1:Solving:RightLeg
		{
			OFFSET 0.000000 42.399242 -0.000006
			CHANNELS 6 Xposition Yposition Zposition Xrotation Yrotation Zrotation
			JOINT Junyuan_V1:Solving:RightFoot
			{
				OFFSET 0.000000 39.245022 -0.000006
				CHANNELS 6 Xposition Yposition Zposition Xrotation Yrotation Zrotation
				JOINT Junyuan_V1:Solving:RightForeFoot
				{
					OFFSET 0.000000 3.261009 -0.000000
					CHANNELS 6 Xposition Yposition Zposition Xrotation Yrotation Zrotation
					JOINT Junyuan_V1:Solving:RightToeBase
					{
						OFFSET 0.000000 0.000000 -12.771147
						CHANNELS 6 Xposition Yposition Zposition Xrotation Yrotation Zrotation
						JOINT Junyuan_V1:Solving:RightToeBaseEnd
						{
							OFFSET 0.000000 0.000000 -4.049008
							CHANNELS 6 Xposition Yposition Zposition Xrotation Yrotation Zrotation
							End Site
							{
								OFFSET 0.000000 -4.049011 0.000000
							}
						}
					}
				}
			}
		}
	}
	JOINT Junyuan_V1:Solving:LeftUpLeg
	{
		OFFSET 11.141669 0.000000 0.000000
		CHANNELS 6 Xposition Yposition Zposition Xrotation Yrotation Zrotation
		JOINT Junyuan_V1:Solving:LeftLeg
		{
			OFFSET 0.000000 42.399242 -0.000006
			CHANNELS 6 Xposition Yposition Zposition Xrotation Yrotation Zrotation
			JOINT Junyuan_V1:Solving:LeftFoot
			{
				OFFSET 0.000000 39.245022 -0.000006
				CHANNELS 6 Xposition Yposition Zposition Xrotation Yrotation Zrotation
				JOINT Junyuan_V1:Solving:LeftForeFoot
				{
					OFFSET 0.000000 3.261009 -0.000000
					CHANNELS 6 Xposition Yposition Zposition Xrotation Yrotation Zrotation
					JOINT Junyuan_V1:Solving:LeftToeBase
					{
						OFFSET 0.000000 0.000000 -12.771147
						CHANNELS 6 Xposition Yposition Zposition Xrotation Yrotation Zrotation
						JOINT Junyuan_V1:Solving:LeftToeBaseEnd
						{
							OFFSET 0.000000 0.000000 -2.960146
							CHANNELS 6 Xposition Yposition Zposition Xrotation Yrotation Zrotation
							End Site
							{
								OFFSET 0.000000 -2.960144 0.000002
							}
						}
					}
				}
			}
		}
	}
}
MOTION
Frames: 4
Frame Time: 0.041667
5.289966 17.431528 -89.749023 83.476373 -219.015029 7.335767 -0.000000 -12.985614 2.462992 10.287848 0.039896 3.784490 0.000001 -8.692398 1.532708 -0.034137 -0.502081 1.505993 0.000003 -8.792885 0.769282 -4.934509 -2.969738 0.981617 -0.000001 -8.826484 0.000000 -1.696260 -0.441593 2.310221 0.000002 -11.348340 -1.134840 -0.540219 11.089209 3.663820 0.000011 -7.624478 -0.667061 5.836301 31.999358 -3.292739 -0.000009 -7.537356 -1.329045 14.381645 2.337748 -5.098634 -0.000007 -9.728096 0.000003 0.000002 -0.000000 -0.000003 0.000003 -8.105942 -5.517347 -0.000007 14.031609 20.595056 -18.898012 -0.000008 0.000006 -37.994000 -9.383610 -91.518579 -28.740988 -0.000013 0.000011 92.173751 -53.290126 92.710782 -20.953531 0.000003 0.000004 2.419899 -7.121359 18.823559 -4.628074 2.916178 -3.441380 0.000001 0.000005 0.000001 -12.341483 -0.000019 0.079105 -0.000001 0.000004 -0.000008 0.000001 -8.105957 -5.517344 -0.000005 -12.237862 -13.461647 18.898020 -0.000007 -0.000008 -6.367899 37.596814 89.794086 28.740978 -0.000012 0.000010 3.986128 2.529693 -0.176220 20.953543 0.000000 0.000006 1.660090 4.032799 -22.396633 4.628095 2.916206 -3.441377 0.000002 -0.000002 -0.000004 12.341513 0.000004 0.079107 0.000000 -0.000001 -0.000003 -11.141666 0.000021 0.000001 -14.260247 9.045739 5.257534 0.000001 42.399235 -0.000010 15.269615 -0.000006 0.000000 -0.000004 39.245014 -0.000010 1.982164 -6.635359 -7.354903 0.000003 3.261002 -0.000000 0.000000 0.000006 -0.000001 0.000001 0.000003 -12.771150 6.699842 0.000000 -0.000000 -0.000003 0.000007 -4.049007 -0.000003 -0.000001 0.000002 11.141667 0.000018 0.000001 -11.692216 -13.740119 -6.193747 -0.000001 42.399246 -0.000011 12.343497 -0.000008 0.000000 -0.000004 39.245026 -0.000007 -4.124959 -8.807254 -15.604247 -0.000004 3.260995 -0.000003 -0.000000 -0.000003 0.000007 -0.000002 0.000004 -12.771147 4.256395 -0.000003 -0.000000 0.000003 0.000000 -2.960141 -0.000002 -0.000001 0.000004 
5.286726 17.424160 -89.752953 83.541662 -219.034946 7.297512 -0.000001 -12.985630 2.462990 10.272322 0.042499 3.740142 -0.000001 -8.692389 1.532704 -0.040476 -0.499019 1.494585 -0.000002 -8.792879 0.769275 -4.947909 -2.979860 0.966249 0.000001 -8.826484 0.000003 -1.718838 -0.447276 2.281516 0.000006 -11.348330 -1.134838 -0.488547 11.136543 3.630759 -0.000001 -7.624499 -0.667056 5.853766 32.048778 -3.299624 0.000003 -7.537354 -1.329034 14.421249 2.336684 -5.066098 0.000003 -9.728119 0.000010 0.000001 0.000000 -0.000001 -0.000004 -8.105949 -5.517343 -0.000001 14.120742 20.668984 -18.898008 0.000000 0.000003 -38.070081 -8.899705 -91.698090 -28.740999 0.000008 -0.000001 92.032011 -53.443833 92.529078 -20.953533 -0.000014 0.000002 2.512076 -7.389047 18.836332 -4.628092 2.916205 -3.441376 0.000003 0.000003 -0.000012 -12.341475 -0.000004 0.079106 0.000002 0.000003 -0.000008 0.000001 -8.105957 -5.517345 -0.000002 -12.261773 -13.493064 18.898018 0.000019 -0.000001 -6.346597 37.607807 89.796661 28.740988 -0.000016 0.000005 4.029135 2.571185 -0.181048 20.953505 -0.000007 -0.000005 1.626368 3.967548 -22.311013 4.628075 2.916199 -3.441381 -0.000001 -0.000005 0.000000 12.341480 0.000009 0.079110 -0.000000 0.000001 0.000004 -11.141670 -0.000003 0.000000 -14.188759 9.058709 5.254143 -0.000001 42.399258 -0.000011 15.247340 -0.000002 -0.000000 -0.000001 39.245029 -0.000007 1.991903 -6.635665 -7.339993 0.000002 3.261009 -0.000004 -0.000002 -0.000007 0.000001 0.000003 0.000015 -12.771150 6.680874 0.000002 0.000000 0.000002 -0.000000 -4.049010 -0.000000 0.000001 0.000002 11.141668 0.000008 0.000003 -11.629340 -13.730130 -6.194660 0.000008 42.399242 -0.000006 12.329662 -0.000002 0.000000 -0.000000 39.245014 -0.000005 -4.114187 -8.799118 -15.601098 0.000002 3.261010 -0.000004 -0.000000 -0.000003 0.000001 -0.000002 -0.000001 -12.771148 4.215253 0.000001 -0.000001 -0.000004 0.000008 -2.960143 -0.000000 0.000004 0.000002 
5.267397 17.418560 -89.753548 83.607902 -219.076023 7.248895 0.000002 -12.985598 2.462989 10.246804 0.033182 3.683136 0.000002 -8.692374 1.532704 -0.050917 -0.496393 1.478254 0.000001 -8.792898 0.769285 -4.943841 -2.982019 0.962510 -0.000002 -8.826491 -0.000003 -1.721273 -0.438232 2.257703 0.000001 -11.348325 -1.134832 -0.473398 11.161633 3.606705 0.000003 -7.624509 -0.667063 5.882578 32.117260 -3.290186 0.000002 -7.537349 -1.329033 14.452011 2.337385 -5.079678 0.000000 -9.728088 0.000006 0.000002 -0.000001 0.000000 -0.000006 -8.105961 -5.517342 -0.000013 14.278367 20.859565 -18.897993 -0.000007 0.000002 -38.162377 -8.049600 -92.241814 -28.741005 -0.000006 0.000010 91.689463 -53.629170 92.097868 -20.953531 -0.000016 0.000003 2.736619 -8.034943 18.879044 -4.628062 2.916204 -3.441375 0.000001 0.000003 -0.000013 -12.341477 -0.000034 0.079110 0.000002 0.000000 -0.000010 0.000001 -8.105968 -5.517342 -0.000004 -12.281653 -13.522610 18.898018 -0.000019 0.000007 -6.346480 37.595065 89.812343 28.740990 -0.000011 0.000000 4.054675 2.617904 -0.185507 20.953526 -0.000011 0.000003 1.628551 3.973731 -22.306699 4.628068 2.916203 -3.441363 -0.000002 -0.000002 0.000001 12.341472 0.000009 0.079122 0.000000 -0.000001 -0.000005 -11.141668 0.000018 -0.000000 -14.107566 9.095885 5.277025 -0.000000 42.399231 -0.000012 15.222186 0.000000 0.000001 0.000000 39.244995 -0.000005 1.977150 -6.642055 -7.359260 -0.000000 3.261017 -0.000001 0.000001 0.000001 -0.000000 -0.000001 0.000006 -12.771151 6.694275 0.000001 0.000001 -0.000003 -0.000000 -4.049008 -0.000001 0.000002 -0.000000 11.141667 0.000033 -0.000004 -11.550742 -13.690472 -6.168801 -0.000001 42.399235 -0.000007 12.310229 -0.000009 0.000001 -0.000006 39.245026 -0.000006 -4.106232 -8.806506 -15.623201 -0.000000 3.261001 -0.000000 0.000001 0.000001 0.000002 -0.000004 -0.000010 -12.771150 4.151857 -0.000001 0.000003 0.000001 0.000000 -2.960146 -0.000001 0.000004 0.000003 
5.264668 17.415043 -89.756264 83.664865 -219.122236 7.219926 0.000000 -12.985641 2.462987 10.242279 0.024810 3.635648 -0.000003 -8.692411 1.532713 -0.060259 -0.493015 1.466161 0.000000 -8.792920 0.769288 -4.951185 -2.984415 0.937422 0.000004 -8.826471 -0.000003 -1.719445 -0.436548 2.227308 0.000010 -11.348292 -1.134833 -0.448731 11.186806 3.611212 -0.000006 -7.624526 -0.667049 5.893290 32.198321 -3.323686 -0.000003 -7.537357 -1.329042 14.478314 2.340067 -5.099986 -0.000005 -9.728081 0.000007 -0.000001 -0.000000 -0.000002 0.000004 -8.105942 -5.517342 -0.000006 14.323061 20.903784 -18.898016 -0.000005 0.000006 -38.127328 -7.578288 -92.263350 -28.740982 -0.000001 -0.000000 91.757069 -54.052379 92.170036 -20.953514 -0.000032 -0.000001 2.837363 -8.262938 19.027184 -4.628048 2.916197 -3.441367 -0.000005 0.000014 0.000006 -12.341452 0.000000 0.079114 -0.000002 -0.000000 0.000003 0.000007 -8.105946 -5.517343 -0.000001 -12.298870 -13.548793 18.898012 0.000019 -0.000006 -6.361365 37.558257 89.822745 28.740999 -0.000008 -0.000001 4.105092 2.697428 -0.193524 20.953522 -0.000005 0.000000 1.617469 3.957193 -22.253074 4.628081 2.916214 -3.441377 0.000005 -0.000002 -0.000002 12.341475 0.000000 0.079112 0.000003 0.000000 -0.000002 -11.141668 -0.000010 0.000004 -14.042535 9.122559 5.277615 0.000002 42.399239 -0.000010 15.209832 -0.000002 -0.000002 -0.000006 39.245018 -0.000007 1.980572 -6.634886 -7.357735 -0.000002 3.261009 -0.000003 0.000000 -0.000001 0.000001 -0.000001 0.000003 -12.771153 6.694259 -0.000004 0.000000 -0.000001 -0.000001 -4.049010 -0.000002 0.000005 -0.000001 11.141670 0.000003 -0.000002 -11.502523 -13.650798 -6.167687 0.000001 42.399250 -0.000006 12.308589 -0.000003 -0.000001 -0.000004 39.245026 -0.000003 -4.092884 -8.799849 -15.634545 -0.000001 3.261009 -0.000003 0.000000 -0.000001 0.000001 -0.000002 -0.000007 -12.771149 4.151153 -0.000001 0.000001 0.000006 0.000015 -2.960146 -0.000000 0.000001 0.000003 
